<svg width="85mm" height="55mm" viewBox="0 0 85 55" xmlns="http://www.w3.org/2000/svg">
  <!-- FOND NOIR PUR -->
  <rect width="85" height="55" fill="#000000" />
  
  <!-- QR CODE EN VECTEURS PURS (CENTRAGE ABSOLU) -->
  <!-- Fond blanc du QR -->
  <rect x="32.5" y="17.5" width="20" height="20" fill="white" rx="0.5" ry="0.5" />
  
  <!-- Les modules du QR Code (chemins géométriques) -->
  <g transform="translate(33, 18) scale(0.131)">
    <path fill="#000000" d="M 0,0 l 5,0 0,5 -5,0 z M 5,0 l 5,0 0,5 -5,0 z M 10,0 l 5,0 0,5 -5,0 z M 15,0 l 5,0 0,5 -5,0 z M 20,0 l 5,0 0,5 -5,0 z M 25,0 l 5,0 0,5 -5,0 z M 30,0 l 5,0 0,5 -5,0 z M 50,0 l 5,0 0,5 -5,0 z M 60,0 l 5,0 0,5 -5,0 z M 65,0 l 5,0 0,5 -5,0 z M 80,0 l 5,0 0,5 -5,0 z M 85,0 l 5,0 0,5 -5,0 z M 90,0 l 5,0 0,5 -5,0 z M 95,0 l 5,0 0,5 -5,0 z M 100,0 l 5,0 0,5 -5,0 z M 110,0 l 5,0 0,5 -5,0 z M 115,0 l 5,0 0,5 -5,0 z M 120,0 l 5,0 0,5 -5,0 z M 125,0 l 5,0 0,5 -5,0 z M 130,0 l 5,0 0,5 -5,0 z M 135,0 l 5,0 0,5 -5,0 z M 140,0 l 5,0 0,5 -5,0 z M 0,5 l 5,0 0,5 -5,0 z M 30,5 l 5,0 0,5 -5,0 z M 40,5 l 5,0 0,5 -5,0 z M 50,5 l 5,0 0,5 -5,0 z M 70,5 l 5,0 0,5 -5,0 z M 75,5 l 5,0 0,5 -5,0 z M 100,5 l 5,0 0,5 -5,0 z M 110,5 l 5,0 0,5 -5,0 z M 140,5 l 5,0 0,5 -5,0 z M 0,10 l 5,0 0,5 -5,0 z M 10,10 l 5,0 0,5 -5,0 z M 15,10 l 5,0 0,5 -5,0 z M 20,10 l 5,0 0,5 -5,0 z M 30,10 l 5,0 0,5 -5,0 z M 60,10 l 5,0 0,5 -5,0 z M 70,10 l 5,0 0,5 -5,0 z M 75,10 l 5,0 0,5 -5,0 z M 80,10 l 5,0 0,5 -5,0 z M 90,10 l 5,0 0,5 -5,0 z M 100,10 l 5,0 0,5 -5,0 z M 110,10 l 5,0 0,5 -5,0 z M 120,10 l 5,0 0,5 -5,0 z M 125,10 l 5,0 0,5 -5,0 z M 130,10 l 5,0 0,5 -5,0 z M 140,10 l 5,0 0,5 -5,0 z M 0,15 l 5,0 0,5 -5,0 z M 10,15 l 5,0 0,5 -5,0 z M 15,15 l 5,0 0,5 -5,0 z M 20,15 l 5,0 0,5 -5,0 z M 30,15 l 5,0 0,5 -5,0 z M 40,15 l 5,0 0,5 -5,0 z M 45,15 l 5,0 0,5 -5,0 z M 50,15 l 5,0 0,5 -5,0 z M 60,15 l 5,0 0,5 -5,0 z M 65,15 l 5,0 0,5 -5,0 z M 70,15 l 5,0 0,5 -5,0 z M 75,15 l 5,0 0,5 -5,0 z M 80,15 l 5,0 0,5 -5,0 z M 85,15 l 5,0 0,5 -5,0 z M 90,15 l 5,0 0,5 -5,0 z M 110,15 l 5,0 0,5 -5,0 z M 120,15 l 5,0 0,5 -5,0 z M 125,15 l 5,0 0,5 -5,0 z M 130,15 l 5,0 0,5 -5,0 z M 140,15 l 5,0 0,5 -5,0 z M 0,20 l 5,0 0,5 -5,0 z M 10,20 l 5,0 0,5 -5,0 z M 15,20 l 5,0 0,5 -5,0 z M 20,20 l 5,0 0,5 -5,0 z M 30,20 l 5,0 0,5 -5,0 z M 45,20 l 5,0 0,5 -5,0 z M 65,20 l 5,0 0,5 -5,0 z M 80,20 l 5,0 0,5 -5,0 z M 85,20 l 5,0 0,5 -5,0 z M 90,20 l 5,0 0,5 -5,0 z M 95,20 l 5,0 0,5 -5,0 z M 100,20 l 5,0 0,5 -5,0 z M 110,20 l 5,0 0,5 -5,0 z M 120,20 l 5,0 0,5 -5,0 z M 125,20 l 5,0 0,5 -5,0 z M 130,20 l 5,0 0,5 -5,0 z M 140,20 l 5,0 0,5 -5,0 z M 0,25 l 5,0 0,5 -5,0 z M 30,25 l 5,0 0,5 -5,0 z M 40,25 l 5,0 0,5 -5,0 z M 45,25 l 5,0 0,5 -5,0 z M 55,25 l 5,0 0,5 -5,0 z M 60,25 l 5,0 0,5 -5,0 z M 70,25 l 5,0 0,5 -5,0 z M 75,25 l 5,0 0,5 -5,0 z M 85,25 l 5,0 0,5 -5,0 z M 100,25 l 5,0 0,5 -5,0 z M 110,25 l 5,0 0,5 -5,0 z M 140,25 l 5,0 0,5 -5,0 z M 0,30 l 5,0 0,5 -5,0 z M 5,30 l 5,0 0,5 -5,0 z M 10,30 l 5,0 0,5 -5,0 z M 15,30 l 5,0 0,5 -5,0 z M 20,30 l 5,0 0,5 -5,0 z M 25,30 l 5,0 0,5 -5,0 z M 30,30 l 5,0 0,5 -5,0 z M 40,30 l 5,0 0,5 -5,0 z M 50,30 l 5,0 0,5 -5,0 z M 60,30 l 5,0 0,5 -5,0 z M 70,30 l 5,0 0,5 -5,0 z M 80,30 l 5,0 0,5 -5,0 z M 90,30 l 5,0 0,5 -5,0 z M 100,30 l 5,0 0,5 -5,0 z M 110,30 l 5,0 0,5 -5,0 z M 115,30 l 5,0 0,5 -5,0 z M 120,30 l 5,0 0,5 -5,0 z M 125,30 l 5,0 0,5 -5,0 z M 130,30 l 5,0 0,5 -5,0 z M 135,30 l 5,0 0,5 -5,0 z M 140,30 l 5,0 0,5 -5,0 z M 45,35 l 5,0 0,5 -5,0 z M 50,35 l 5,0 0,5 -5,0 z M 55,35 l 5,0 0,5 -5,0 z M 75,35 l 5,0 0,5 -5,0 z M 90,35 l 5,0 0,5 -5,0 z M 95,35 l 5,0 0,5 -5,0 z M 0,40 l 5,0 0,5 -5,0 z M 5,40 l 5,0 0,5 -5,0 z M 10,40 l 5,0 0,5 -5,0 z M 15,40 l 5,0 0,5 -5,0 z M 20,40 l 5,0 0,5 -5,0 z M 30,40 l 5,0 0,5 -5,0 z M 35,40 l 5,0 0,5 -5,0 z M 40,40 l 5,0 0,5 -5,0 z M 45,40 l 5,0 0,5 -5,0 z M 55,40 l 5,0 0,5 -5,0 z M 85,40 l 5,0 0,5 -5,0 z M 105,40 l 5,0 0,5 -5,0 z M 115,40 l 5,0 0,5 -5,0 z M 125,40 l 5,0 0,5 -5,0 z M 135,40 l 5,0 0,5 -5,0 z M 5,45 l 5,0 0,5 -5,0 z M 10,45 l 5,0 0,5 -5,0 z M 15,45 l 5,0 0,5 -5,0 z M 35,45 l 5,0 0,5 -5,0 z M 50,45 l 5,0 0,5 -5,0 z M 60,45 l 5,0 0,5 -5,0 z M 65,45 l 5,0 0,5 -5,0 z M 80,45 l 5,0 0,5 -5,0 z M 90,45 l 5,0 0,5 -5,0 z M 95,45 l 5,0 0,5 -5,0 z M 100,45 l 5,0 0,5 -5,0 z M 105,45 l 5,0 0,5 -5,0 z M 110,45 l 5,0 0,5 -5,0 z M 115,45 l 5,0 0,5 -5,0 z M 120,45 l 5,0 0,5 -5,0 z M 140,45 l 5,0 0,5 -5,0 z M 0,50 l 5,0 0,5 -5,0 z M 20,50 l 5,0 0,5 -5,0 z M 30,50 l 5,0 0,5 -5,0 z M 35,50 l 5,0 0,5 -5,0 z M 50,50 l 5,0 0,5 -5,0 z M 65,50 l 5,0 0,5 -5,0 z M 70,50 l 5,0 0,5 -5,0 z M 75,50 l 5,0 0,5 -5,0 z M 90,50 l 5,0 0,5 -5,0 z M 110,50 l 5,0 0,5 -5,0 z M 115,50 l 5,0 0,5 -5,0 z M 0,55 l 5,0 0,5 -5,0 z M 60,55 l 5,0 0,5 -5,0 z M 65,55 l 5,0 0,5 -5,0 z M 80,55 l 5,0 0,5 -5,0 z M 95,55 l 5,0 0,5 -5,0 z M 110,55 l 5,0 0,5 -5,0 z M 120,55 l 5,0 0,5 -5,0 z M 125,55 l 5,0 0,5 -5,0 z M 135,55 l 5,0 0,5 -5,0 z M 0,60 l 5,0 0,5 -5,0 z M 5,60 l 5,0 0,5 -5,0 z M 10,60 l 5,0 0,5 -5,0 z M 15,60 l 5,0 0,5 -5,0 z M 20,60 l 5,0 0,5 -5,0 z M 25,60 l 5,0 0,5 -5,0 z M 30,60 l 5,0 0,5 -5,0 z M 45,60 l 5,0 0,5 -5,0 z M 50,60 l 5,0 0,5 -5,0 z M 60,60 l 5,0 0,5 -5,0 z M 70,60 l 5,0 0,5 -5,0 z M 85,60 l 5,0 0,5 -5,0 z M 100,60 l 5,0 0,5 -5,0 z M 115,60 l 5,0 0,5 -5,0 z M 125,60 l 5,0 0,5 -5,0 z M 130,60 l 5,0 0,5 -5,0 z M 0,65 l 5,0 0,5 -5,0 z M 15,65 l 5,0 0,5 -5,0 z M 95,65 l 5,0 0,5 -5,0 z M 100,65 l 5,0 0,5 -5,0 z M 105,65 l 5,0 0,5 -5,0 z M 110,65 l 5,0 0,5 -5,0 z M 115,65 l 5,0 0,5 -5,0 z M 120,65 l 5,0 0,5 -5,0 z M 140,65 l 5,0 0,5 -5,0 z M 0,70 l 5,0 0,5 -5,0 z M 5,70 l 5,0 0,5 -5,0 z M 10,70 l 5,0 0,5 -5,0 z M 15,70 l 5,0 0,5 -5,0 z M 20,70 l 5,0 0,5 -5,0 z M 25,70 l 5,0 0,5 -5,0 z M 30,70 l 5,0 0,5 -5,0 z M 40,70 l 5,0 0,5 -5,0 z M 50,70 l 5,0 0,5 -5,0 z M 55,70 l 5,0 0,5 -5,0 z M 60,70 l 5,0 0,5 -5,0 z M 75,70 l 5,0 0,5 -5,0 z M 80,70 l 5,0 0,5 -5,0 z M 90,70 l 5,0 0,5 -5,0 z M 100,70 l 5,0 0,5 -5,0 z M 110,70 l 5,0 0,5 -5,0 z M 115,70 l 5,0 0,5 -5,0 z M 120,70 l 5,0 0,5 -5,0 z M 125,70 l 5,0 0,5 -5,0 z M 130,70 l 5,0 0,5 -5,0 z M 25,75 l 5,0 0,5 -5,0 z M 55,75 l 5,0 0,5 -5,0 z M 70,75 l 5,0 0,5 -5,0 z M 75,75 l 5,0 0,5 -5,0 z M 90,75 l 5,0 0,5 -5,0 z M 100,75 l 5,0 0,5 -5,0 z M 105,75 l 5,0 0,5 -5,0 z M 110,75 l 5,0 0,5 -5,0 z M 135,75 l 5,0 0,5 -5,0 z M 0,80 l 5,0 0,5 -5,0 z M 5,80 l 5,0 0,5 -5,0 z M 10,80 l 5,0 0,5 -5,0 z M 25,80 l 5,0 0,5 -5,0 z M 30,80 l 5,0 0,5 -5,0 z M 35,80 l 5,0 0,5 -5,0 z M 40,80 l 5,0 0,5 -5,0 z M 45,80 l 5,0 0,5 -5,0 z M 50,80 l 5,0 0,5 -5,0 z M 55,80 l 5,0 0,5 -5,0 z M 85,80 l 5,0 0,5 -5,0 z M 105,80 l 5,0 0,5 -5,0 z M 125,80 l 5,0 0,5 -5,0 z M 130,80 l 5,0 0,5 -5,0 z M 0,85 l 5,0 0,5 -5,0 z M 10,85 l 5,0 0,5 -5,0 z M 20,85 l 5,0 0,5 -5,0 z M 50,85 l 5,0 0,5 -5,0 z M 60,85 l 5,0 0,5 -5,0 z M 65,85 l 5,0 0,5 -5,0 z M 70,85 l 5,0 0,5 -5,0 z M 80,85 l 5,0 0,5 -5,0 z M 95,85 l 5,0 0,5 -5,0 z M 100,85 l 5,0 0,5 -5,0 z M 105,85 l 5,0 0,5 -5,0 z M 110,85 l 5,0 0,5 -5,0 z M 115,85 l 5,0 0,5 -5,0 z M 120,85 l 5,0 0,5 -5,0 z M 130,85 l 5,0 0,5 -5,0 z M 140,85 l 5,0 0,5 -5,0 z M 0,90 l 5,0 0,5 -5,0 z M 25,90 l 5,0 0,5 -5,0 z M 30,90 l 5,0 0,5 -5,0 z M 40,90 l 5,0 0,5 -5,0 z M 65,90 l 5,0 0,5 -5,0 z M 70,90 l 5,0 0,5 -5,0 z M 75,90 l 5,0 0,5 -5,0 z M 80,90 l 5,0 0,5 -5,0 z M 90,90 l 5,0 0,5 -5,0 z M 110,90 l 5,0 0,5 -5,0 z M 115,90 l 5,0 0,5 -5,0 z M 120,90 l 5,0 0,5 -5,0 z M 130,90 l 5,0 0,5 -5,0 z M 0,95 l 5,0 0,5 -5,0 z M 50,95 l 5,0 0,5 -5,0 z M 60,95 l 5,0 0,5 -5,0 z M 65,95 l 5,0 0,5 -5,0 z M 90,95 l 5,0 0,5 -5,0 z M 95,95 l 5,0 0,5 -5,0 z M 100,95 l 5,0 0,5 -5,0 z M 120,95 l 5,0 0,5 -5,0 z M 135,95 l 5,0 0,5 -5,0 z M 0,100 l 5,0 0,5 -5,0 z M 10,100 l 5,0 0,5 -5,0 z M 20,100 l 5,0 0,5 -5,0 z M 25,100 l 5,0 0,5 -5,0 z M 30,100 l 5,0 0,5 -5,0 z M 45,100 l 5,0 0,5 -5,0 z M 60,100 l 5,0 0,5 -5,0 z M 70,100 l 5,0 0,5 -5,0 z M 75,100 l 5,0 0,5 -5,0 z M 85,100 l 5,0 0,5 -5,0 z M 90,100 l 5,0 0,5 -5,0 z M 100,100 l 5,0 0,5 -5,0 z M 105,100 l 5,0 0,5 -5,0 z M 110,100 l 5,0 0,5 -5,0 z M 115,100 l 5,0 0,5 -5,0 z M 120,100 l 5,0 0,5 -5,0 z M 130,100 l 5,0 0,5 -5,0 z M 135,100 l 5,0 0,5 -5,0 z M 140,100 l 5,0 0,5 -5,0 z M 40,105 l 5,0 0,5 -5,0 z M 45,105 l 5,0 0,5 -5,0 z M 50,105 l 5,0 0,5 -5,0 z M 80,105 l 5,0 0,5 -5,0 z M 85,105 l 5,0 0,5 -5,0 z M 90,105 l 5,0 0,5 -5,0 z M 95,105 l 5,0 0,5 -5,0 z M 100,105 l 5,0 0,5 -5,0 z M 120,105 l 5,0 0,5 -5,0 z M 125,105 l 5,0 0,5 -5,0 z M 130,105 l 5,0 0,5 -5,0 z M 135,105 l 5,0 0,5 -5,0 z M 140,105 l 5,0 0,5 -5,0 z M 0,110 l 5,0 0,5 -5,0 z M 5,110 l 5,0 0,5 -5,0 z M 10,110 l 5,0 0,5 -5,0 z M 15,110 l 5,0 0,5 -5,0 z M 20,110 l 5,0 0,5 -5,0 z M 25,110 l 5,0 0,5 -5,0 z M 30,110 l 5,0 0,5 -5,0 z M 40,110 l 5,0 0,5 -5,0 z M 55,110 l 5,0 0,5 -5,0 z M 60,110 l 5,0 0,5 -5,0 z M 75,110 l 5,0 0,5 -5,0 z M 85,110 l 5,0 0,5 -5,0 z M 95,110 l 5,0 0,5 -5,0 z M 100,110 l 5,0 0,5 -5,0 z M 110,110 l 5,0 0,5 -5,0 z M 120,110 l 5,0 0,5 -5,0 z M 125,110 l 5,0 0,5 -5,0 z M 130,110 l 5,0 0,5 -5,0 z M 0,115 l 5,0 0,5 -5,0 z M 30,115 l 5,0 0,5 -5,0 z M 45,115 l 5,0 0,5 -5,0 z M 50,115 l 5,0 0,5 -5,0 z M 55,115 l 5,0 0,5 -5,0 z M 70,115 l 5,0 0,5 -5,0 z M 95,115 l 5,0 0,5 -5,0 z M 100,115 l 5,0 0,5 -5,0 z M 120,115 l 5,0 0,5 -5,0 z M 135,115 l 5,0 0,5 -5,0 z M 140,115 l 5,0 0,5 -5,0 z M 0,120 l 5,0 0,5 -5,0 z M 10,120 l 5,0 0,5 -5,0 z M 15,120 l 5,0 0,5 -5,0 z M 20,120 l 5,0 0,5 -5,0 z M 30,120 l 5,0 0,5 -5,0 z M 40,120 l 5,0 0,5 -5,0 z M 45,120 l 5,0 0,5 -5,0 z M 55,120 l 5,0 0,5 -5,0 z M 75,120 l 5,0 0,5 -5,0 z M 80,120 l 5,0 0,5 -5,0 z M 85,120 l 5,0 0,5 -5,0 z M 100,120 l 5,0 0,5 -5,0 z M 105,120 l 5,0 0,5 -5,0 z M 110,120 l 5,0 0,5 -5,0 z M 115,120 l 5,0 0,5 -5,0 z M 120,120 l 5,0 0,5 -5,0 z M 130,120 l 5,0 0,5 -5,0 z M 0,125 l 5,0 0,5 -5,0 z M 10,125 l 5,0 0,5 -5,0 z M 15,125 l 5,0 0,5 -5,0 z M 20,125 l 5,0 0,5 -5,0 z M 30,125 l 5,0 0,5 -5,0 z M 40,125 l 5,0 0,5 -5,0 z M 60,125 l 5,0 0,5 -5,0 z M 65,125 l 5,0 0,5 -5,0 z M 70,125 l 5,0 0,5 -5,0 z M 80,125 l 5,0 0,5 -5,0 z M 85,125 l 5,0 0,5 -5,0 z M 90,125 l 5,0 0,5 -5,0 z M 100,125 l 5,0 0,5 -5,0 z M 105,125 l 5,0 0,5 -5,0 z M 125,125 l 5,0 0,5 -5,0 z M 130,125 l 5,0 0,5 -5,0 z M 135,125 l 5,0 0,5 -5,0 z M 140,125 l 5,0 0,5 -5,0 z M 0,130 l 5,0 0,5 -5,0 z M 10,130 l 5,0 0,5 -5,0 z M 15,130 l 5,0 0,5 -5,0 z M 20,130 l 5,0 0,5 -5,0 z M 30,130 l 5,0 0,5 -5,0 z M 40,130 l 5,0 0,5 -5,0 z M 50,130 l 5,0 0,5 -5,0 z M 65,130 l 5,0 0,5 -5,0 z M 70,130 l 5,0 0,5 -5,0 z M 75,130 l 5,0 0,5 -5,0 z M 80,130 l 5,0 0,5 -5,0 z M 95,130 l 5,0 0,5 -5,0 z M 100,130 l 5,0 0,5 -5,0 z M 110,130 l 5,0 0,5 -5,0 z M 115,130 l 5,0 0,5 -5,0 z M 120,130 l 5,0 0,5 -5,0 z M 125,130 l 5,0 0,5 -5,0 z M 130,130 l 5,0 0,5 -5,0 z M 135,130 l 5,0 0,5 -5,0 z M 0,135 l 5,0 0,5 -5,0 z M 30,135 l 5,0 0,5 -5,0 z M 40,135 l 5,0 0,5 -5,0 z M 60,135 l 5,0 0,5 -5,0 z M 65,135 l 5,0 0,5 -5,0 z M 75,135 l 5,0 0,5 -5,0 z M 80,135 l 5,0 0,5 -5,0 z M 100,135 l 5,0 0,5 -5,0 z M 115,135 l 5,0 0,5 -5,0 z M 120,135 l 5,0 0,5 -5,0 z M 125,135 l 5,0 0,5 -5,0 z M 135,135 l 5,0 0,5 -5,0 z M 0,140 l 5,0 0,5 -5,0 z M 5,140 l 5,0 0,5 -5,0 z M 10,140 l 5,0 0,5 -5,0 z M 15,140 l 5,0 0,5 -5,0 z M 20,140 l 5,0 0,5 -5,0 z M 25,140 l 5,0 0,5 -5,0 z M 30,140 l 5,0 0,5 -5,0 z M 40,140 l 5,0 0,5 -5,0 z M 45,140 l 5,0 0,5 -5,0 z M 60,140 l 5,0 0,5 -5,0 z M 70,140 l 5,0 0,5 -5,0 z M 75,140 l 5,0 0,5 -5,0 z M 85,140 l 5,0 0,5 -5,0 z M 110,140 l 5,0 0,5 -5,0 z M 115,140 l 5,0 0,5 -5,0 z M 130,140 l 5,0 0,5 -5,0 z" />
  </g>
</svg>
